<?xml version="1.0" standalone="no"?>
<!DOCTYPE svg PUBLIC "-//W3C//DTD SVG 20010904//EN"
 "http://www.w3.org/TR/2001/REC-SVG-20010904/DTD/svg10.dtd">
<svg version="1.0" xmlns="http://www.w3.org/2000/svg"
 width="512.000000pt" height="512.000000pt" viewBox="0 0 512.000000 512.000000"
 preserveAspectRatio="xMidYMid meet">

<g transform="translate(0.000000,512.000000) scale(0.100000,-0.100000)"
fill="#ffffff" stroke="none">
<path d="M1336 5109 c-255 -25 -524 -130 -736 -287 -139 -103 -288 -263 -374
-400 -86 -138 -161 -326 -198 -495 -31 -147 -31 -427 0 -574 64 -295 197 -539
412 -753 177 -178 377 -299 605 -369 108 -33 247 -61 301 -61 42 0 74 32 74
75 0 50 -26 65 -150 86 -280 48 -525 174 -726 374 -192 191 -311 412 -370 686
-25 117 -26 380 -1 499 115 540 515 937 1060 1051 145 31 371 30 517 0 242
-51 433 -143 621 -301 41 -34 81 -60 94 -60 38 0 75 37 75 75 0 28 -10 42 -62
90 -222 201 -535 335 -853 365 -123 11 -161 11 -289 -1z"/>
<path d="M1476 4681 c-41 -45 -14 -116 48 -125 17 -3 68 -10 113 -16 124 -17
268 -72 368 -139 40 -28 71 -26 100 4 32 31 33 75 3 102 -98 90 -344 180 -523
190 -83 5 -92 4 -109 -16z"/>
<path d="M1002 4585 c-280 -143 -470 -378 -554 -688 -19 -70 -22 -107 -22
-257 0 -150 3 -187 22 -257 98 -361 361 -642 709 -757 103 -34 153 -15 153 59
0 42 -19 57 -105 85 -318 103 -550 362 -620 693 -17 80 -19 248 -4 333 52 296
245 544 526 675 45 21 87 48 93 59 25 46 -14 110 -67 110 -12 0 -71 -25 -131
-55z"/>
<path d="M2645 4347 c-64 -21 -97 -42 -141 -89 -72 -74 -89 -118 -89 -228 0
-81 4 -102 24 -145 32 -63 93 -124 156 -155 60 -29 173 -39 232 -20 88 29 158
102 145 152 -6 23 -49 58 -71 58 -9 0 -38 -16 -65 -35 -41 -29 -58 -35 -99
-35 -102 0 -177 77 -177 181 0 133 131 215 255 160 76 -33 112 -25 135 29 11
28 11 34 -7 58 -47 65 -202 101 -298 69z"/>
<path d="M3096 4339 l-26 -20 0 -290 c0 -357 -14 -329 163 -329 141 0 157 8
157 73 0 52 -35 77 -111 77 l-58 0 -3 236 c-3 234 -3 236 -27 255 -30 25 -62
24 -95 -2z"/>
<path d="M3516 4339 l-26 -20 0 -288 0 -288 23 -21 c33 -31 80 -29 106 4 20
26 21 39 21 306 l0 279 -25 24 c-30 30 -64 32 -99 4z"/>
<path d="M3958 4343 c-191 -72 -278 -278 -193 -457 28 -60 91 -123 157 -158
36 -19 58 -23 138 -23 109 0 154 17 208 80 37 41 41 76 12 105 -30 30 -66 35
-96 14 -77 -55 -78 -55 -136 -51 -70 4 -122 40 -150 105 -68 152 99 308 247
232 54 -28 89 -26 114 6 42 53 21 99 -61 134 -71 31 -177 37 -240 13z"/>
<path d="M4415 4335 l-25 -24 0 -279 c0 -267 1 -280 21 -306 26 -33 79 -36
109 -6 16 16 20 33 20 85 0 36 3 65 7 65 4 0 46 -38 94 -85 70 -69 92 -85 117
-85 37 0 69 26 78 63 6 25 -4 39 -117 153 l-124 125 40 36 c130 117 185 175
185 197 0 39 -37 76 -76 76 -28 0 -47 -12 -116 -76 l-83 -76 -3 61 c-2 51 -7
63 -29 81 -34 27 -69 25 -98 -5z"/>
<path d="M4995 4335 c-25 -24 -25 -27 -25 -190 0 -152 2 -167 20 -185 12 -12
33 -20 55 -20 22 0 43 8 55 20 18 18 20 33 20 185 0 163 0 166 -25 190 -13 14
-36 25 -50 25 -14 0 -37 -11 -50 -25z"/>
<path d="M5010 3847 c-14 -7 -28 -27 -34 -45 -21 -74 76 -125 124 -65 23 29
22 76 -3 100 -20 19 -60 24 -87 10z"/>
<path d="M1519 3764 c-59 -18 -133 -83 -165 -146 -54 -106 -89 10 545 -1822
314 -908 581 -1665 594 -1683 31 -47 99 -90 163 -103 114 -24 234 31 283 130
10 19 66 184 126 366 119 365 121 374 59 400 -29 12 -40 12 -62 2 -25 -12 -37
-44 -142 -360 -74 -225 -122 -355 -136 -369 -46 -45 -131 -34 -168 24 -17 25
-1133 3251 -1136 3282 -7 68 38 132 100 141 28 4 348 -102 1684 -559 1001
-342 1658 -572 1672 -584 13 -11 26 -33 30 -48 9 -37 -12 -102 -40 -120 -13
-9 -373 -128 -801 -264 -427 -137 -783 -255 -790 -262 -17 -19 -185 -527 -185
-562 0 -59 85 -91 124 -48 10 11 53 127 95 258 l77 238 159 52 c88 28 430 138
760 243 412 131 612 199 640 218 140 97 145 329 8 425 -28 20 -234 95 -655
239 -337 115 -1054 361 -1593 545 -539 184 -1013 346 -1053 359 -82 27 -126
29 -193 8z"/>
</g>
</svg>
